<?xml version="1.0" standalone="no"?>
<!DOCTYPE svg PUBLIC "-//W3C//DTD SVG 20010904//EN"
 "http://www.w3.org/TR/2001/REC-SVG-20010904/DTD/svg10.dtd">
<svg version="1.0" xmlns="http://www.w3.org/2000/svg"
 width="1113.000000pt" height="1280.000000pt" viewBox="0 0 1113.000000 1280.000000"
 preserveAspectRatio="xMidYMid meet">
<metadata>
Created by potrace 1.15, written by Peter Selinger 2001-2017
</metadata>
<g transform="translate(0.000000,1280.000000) scale(0.100000,-0.100000)"
fill="#fff" stroke="none">
<path d="M7412 12753 c-122 -285 -383 -924 -430 -1054 -251 -690 -394 -1545
-418 -2494 -13 -491 30 -824 142 -1115 114 -297 259 -545 561 -960 328 -450
558 -825 654 -1065 44 -111 87 -262 106 -375 22 -129 22 -393 -1 -520 -58
-329 -150 -569 -442 -1145 -201 -396 -326 -663 -411 -875 -78 -193 -206 -540
-202 -545 15 -14 923 -355 930 -348 24 25 786 1450 836 1567 271 620 416 1692
318 2349 -22 144 -58 284 -114 444 -112 316 -188 472 -287 583 -164 186 -492
625 -595 798 -252 423 -400 1025 -400 1622 0 275 14 429 62 695 46 251 65 314
385 1277 141 422 253 772 250 777 -8 13 -316 176 -455 240 -61 29 -187 82
-279 118 -92 36 -172 67 -178 70 -6 2 -20 -18 -32 -44z"/>
<path d="M5025 12720 c-2 -4 -35 -96 -74 -206 -117 -334 -205 -564 -345 -896
-35 -84 -81 -200 -101 -258 -141 -407 -243 -1049 -306 -1925 -16 -224 -16
-705 0 -835 16 -128 47 -259 102 -422 78 -234 128 -341 269 -578 193 -322 309
-484 529 -738 201 -232 212 -245 273 -337 153 -229 255 -514 310 -860 17 -110
22 -182 22 -340 0 -414 -69 -708 -306 -1305 -94 -236 -163 -377 -302 -620
-183 -316 -396 -759 -383 -794 3 -7 46 -41 97 -75 134 -92 274 -156 642 -292
l77 -28 93 112 c209 250 299 386 563 851 162 287 237 410 302 503 63 89 98
174 143 346 78 302 142 641 177 942 23 207 23 627 0 820 -53 428 -149 721
-342 1040 -99 164 -149 237 -357 513 -264 351 -406 576 -558 887 -139 285
-223 518 -269 750 -67 335 -49 712 54 1175 51 227 98 387 285 955 288 875 410
1258 405 1263 -12 12 -996 359 -1000 352z"/>
<path d="M2644 12558 c-4 -13 -90 -219 -191 -458 -102 -239 -202 -478 -223
-530 -163 -411 -335 -1164 -449 -1965 -87 -607 -80 -879 29 -1266 108 -381
237 -618 650 -1199 339 -477 568 -827 664 -1017 143 -283 201 -636 176 -1068
-34 -584 -109 -933 -279 -1290 -111 -233 -243 -445 -540 -864 -95 -134 -175
-250 -178 -256 -5 -15 318 -327 438 -423 77 -62 188 -135 306 -203 l41 -24
184 181 c101 100 196 189 211 199 44 28 135 176 255 412 127 252 198 405 254
553 181 474 296 1084 349 1841 15 230 7 711 -15 849 -60 366 -233 701 -661
1280 -280 378 -514 759 -645 1047 -95 211 -141 365 -177 594 -24 156 -24 529
0 718 63 480 150 814 372 1426 209 579 266 780 285 1003 17 218 21 272 18 272
-2 0 -192 47 -423 105 -231 58 -425 105 -432 105 -6 0 -15 -10 -19 -22z"/>
<path d="M10110 1253 c-969 -17 -2120 -41 -3515 -73 -236 -6 -722 -17 -1080
-25 -835 -19 -1405 -33 -2775 -65 -228 -5 -613 -14 -855 -20 -242 -6 -615 -15
-830 -20 -214 -5 -540 -13 -724 -16 l-334 -7 6 -116 c4 -64 12 -285 18 -491 7
-206 16 -386 21 -399 l9 -24 477 7 c432 6 944 16 2377 46 1559 33 2279 48
2800 60 237 5 629 14 873 20 243 5 641 15 885 20 243 6 636 15 872 20 237 5
637 14 890 20 253 6 640 15 860 20 220 5 540 13 712 16 172 4 317 10 322 14 7
4 -1 164 -25 501 -20 271 -37 495 -39 497 -18 19 -397 25 -945 15z"/>
</g>
</svg>
